<?xml version="1.0" encoding="utf-8"?>
<!-- Generator: Adobe Illustrator 16.0.0, SVG Export Plug-In . SVG Version: 6.00 Build 0)  -->
<!DOCTYPE svg PUBLIC "-//W3C//DTD SVG 1.1//EN" "http://www.w3.org/Graphics/SVG/1.1/DTD/svg11.dtd">
<svg version="1.1" id="Capa_1" xmlns="http://www.w3.org/2000/svg" xmlns:xlink="http://www.w3.org/1999/xlink" x="0px" y="0px"
	 width="500px" height="500px" viewBox="0 0 500 500" enable-background="new 0 0 500 500" xml:space="preserve">
<g id="BACKGROUND">
	
		<linearGradient id="SVGID_1_" gradientUnits="userSpaceOnUse" x1="28.6582" y1="379.2346" x2="156.9919" y2="319.0556" gradientTransform="matrix(1 0 0 -1 91.0098 587.4009)">
		<stop  offset="0" style="stop-color:#EF42BD"/>
		<stop  offset="1" style="stop-color:#F97F89"/>
	</linearGradient>
	<circle fill="url(#SVGID_1_)" cx="243" cy="266" r="218"/>
	<ellipse opacity="0.19" enable-background="new    " cx="252.855" cy="409.981" rx="217.65" ry="11.543"/>
	
		<linearGradient id="SVGID_2_" gradientUnits="userSpaceOnUse" x1="41.9614" y1="416.5325" x2="159.9619" y2="361.199" gradientTransform="matrix(1 0 0 -1 91.0098 587.4009)">
		<stop  offset="0" style="stop-color:#EF42BD"/>
		<stop  offset="1" style="stop-color:#F97F89"/>
	</linearGradient>
	<path fill="url(#SVGID_2_)" d="M88.902,321.919c-40.888-31.981-67.827-79.566-47.103-132.994
		C73.888,106.198,171.735,64.938,255,60.821c35.639-1.762,46.375,11.699,62.223,40.827c18.721,34.411,71.567,30.138,101.162,53.443
		c22.321,17.58,32.786,48.851,33.063,76.697c0.671,67.585-55.263,115.681-116.108,131.561
		c-56.746,14.812-119.528,10.29-175.603-5.438C135.527,351.122,110.304,338.657,88.902,321.919z"/>
</g>
<rect x="65" y="285" fill="#B1B1B2" width="374" height="97"/>
<g>
	<g>
		
			<rect x="44.722" y="232.397" transform="matrix(-0.3654 -0.9308 0.9308 -0.3654 -109.4014 393.4088)" width="69.353" height="3.197"/>
	</g>
	<g>
		<polygon fill="#FFFFFF" points="409.895,293.955 112.534,279.652 127.688,171.981 142.499,177.994 		"/>
	</g>
	<g>
		<path fill="#2D2E33" d="M70.918,216.8l-6.084-15.5l54.066-50.812l2.189,2.33l-12.526,11.771l5.294,10.741L70.918,216.8z
			 M68.601,202.146l3.543,9.026l37.815-36.521l-3.831-7.772L68.601,202.146z"/>
	</g>
	<g>
		<path fill="#95066A" d="M156.842,166.519c-4.095-7.645-12.422-11.566-20.537-10.424l-6.164-11.509
			c-1.983-3.703-6.592-5.098-10.295-3.113l0,0c-3.703,1.983-5.096,6.592-3.113,10.294l6.196,11.568
			c-5.348,6.12-6.65,15.145-2.586,22.732l0,0L156.842,166.519L156.842,166.519z"/>
	</g>
	<g>
		<polygon fill="#95066A" points="100.931,272.529 100.931,272.512 101.054,272.512 100.931,264.497 83.08,264.497 83.08,272.529 
			72.072,272.529 72.072,279.652 112.534,279.652 112.534,272.529 		"/>
	</g>
	<g opacity="0.15">
		<path fill="#FFFFFF" d="M125.79,146.043l6.562,12.25c8.232-1.16,16.667,2.582,21.214,9.979l3.276-1.755l0,0
			c-4.095-7.645-12.422-11.566-20.537-10.424l-6.164-11.509c-1.983-3.703-6.592-5.098-10.295-3.113l0,0
			c-0.189,0.102-0.369,0.214-0.546,0.329C121.95,142.017,124.441,143.525,125.79,146.043z"/>
	</g>
</g>
<g>
	<g>
		<g>
			<g>
				<g>
					<path fill="#2D2E33" d="M373.576,245.219H336.68c3.521,3.02,5.752,7.496,5.752,12.497l0,0c0,9.093-7.371,16.464-16.464,16.464
						h-11.307c-1.097,0-1.984,0.889-1.984,1.984l0,0c0,1.095,0.89,1.982,1.984,1.982h58.914c9.093,0,16.464-7.371,16.464-16.465l0,0
						C390.04,252.59,382.669,245.219,373.576,245.219z"/>
				</g>
			</g>
			<g>
				<g>
					<path fill="#101011" d="M373.73,279.933h-60.01c-0.986,0-1.785-0.799-1.785-1.785c0-0.985,0.799-1.785,1.785-1.785h60.01
						c8.096,0,14.681-6.585,14.681-14.68c0-8.094-6.585-14.678-14.681-14.678c-0.985,0-1.785-0.799-1.785-1.785
						s0.8-1.786,1.785-1.786c10.063,0,18.25,8.188,18.25,18.249C391.98,271.746,383.795,279.933,373.73,279.933z"/>
				</g>
			</g>
		</g>
		<g opacity="0.19">
			<path d="M342.314,255.764h48.676c-2.465-7.165-9.268-12.33-17.26-12.33c-0.985,0-1.785,0.799-1.785,1.785H336.68
				C339.734,247.839,341.816,251.559,342.314,255.764z"/>
		</g>
	</g>
	<g>
		<g>
			<path fill="#060707" d="M283.809,251.967h144.009c3.374,0,6.204-2.455,6.321-5.483l3.304-84.916
				c0.118-3.027-2.521-5.482-5.896-5.482h-144.01c-3.373,0-6.203,2.455-6.321,5.482l-3.304,84.916
				C277.795,249.512,280.434,251.967,283.809,251.967z"/>
		</g>
		<g>
			<path fill="#060707" d="M278.43,241.99l-0.518,7.063c-0.117,1.61,2.521,2.915,5.896,2.915h144.009
				c3.374,0,6.204-1.305,6.321-2.915l0.518-7.063H278.43z"/>
		</g>
		<g>
			<path fill="#2D2E33" d="M279.484,251.967h144.01c3.373,0,6.204-2.455,6.321-5.483l3.304-84.916
				c0.117-3.027-2.521-5.482-5.896-5.482H283.215c-3.374,0-6.204,2.455-6.322,5.482l-3.303,84.916
				C273.473,249.512,276.111,251.967,279.484,251.967z"/>
		</g>
		<g>
			<polygon fill="#FFFFFF" points="280.365,242.083 424.166,242.083 426.993,161.128 283.191,161.128 			"/>
		</g>
		<g>
			<path fill="#2D2E33" d="M274.105,241.99l-0.517,7.063c-0.118,1.61,2.521,2.915,5.896,2.915h144.01
				c3.373,0,6.204-1.305,6.32-2.915l0.518-7.063H274.105z"/>
		</g>
	</g>
	<g>
		<g>
			<polygon fill="#E6E0FF" points="424.255,239.563 285.459,239.563 287.979,167.43 426.773,167.43 			"/>
		</g>
		<g>
			<polygon fill="#24004D" points="426.654,170.858 282.623,170.858 282.962,161.149 426.993,161.149 			"/>
		</g>
		<g>
			<polygon fill="#310F57" points="425.412,206.424 410.073,206.424 411.314,170.858 426.654,170.858 			"/>
		</g>
		<g>
			<g>
				<path fill="#4929CF" d="M423.492,167.856c-0.117,0-0.233-0.045-0.321-0.136l-2.714-2.812c-0.171-0.178-0.166-0.461,0.012-0.632
					c0.176-0.171,0.458-0.167,0.631,0.012l2.715,2.812c0.171,0.177,0.166,0.46-0.013,0.631
					C423.716,167.814,423.604,167.856,423.492,167.856z"/>
			</g>
			<g>
				<path fill="#6D1E83" d="M420.682,167.856c-0.117,0-0.233-0.045-0.322-0.136c-0.17-0.177-0.166-0.46,0.012-0.631l2.91-2.813
					c0.179-0.173,0.459-0.167,0.632,0.012c0.171,0.177,0.166,0.46-0.011,0.631l-2.91,2.812
					C420.904,167.814,420.792,167.856,420.682,167.856z"/>
			</g>
		</g>
		<g>
			<g>
				<polygon fill="#24004D" points="405.645,187.945 376.048,187.945 376.186,184.019 405.782,184.019 				"/>
			</g>
			<g>
				<polygon fill="#6D1E83" points="405.131,202.656 375.534,202.656 376.083,186.953 405.68,186.953 				"/>
			</g>
		</g>
		<g>
			<g>
				<polygon fill="#24004D" points="310.025,200.372 292.568,200.372 292.65,198.056 310.105,198.056 				"/>
			</g>
			<g>
				<polygon fill="#6D1E83" points="309.723,209.049 292.268,209.049 292.59,199.786 310.046,199.786 				"/>
			</g>
		</g>
		<g>
			<g>
				<polygon fill="#24004D" points="309.643,211.364 292.186,211.364 292.268,209.049 309.723,209.049 				"/>
			</g>
			<g>
				<polygon fill="#6D1E83" points="309.339,220.042 291.883,220.042 292.206,210.779 309.662,210.779 				"/>
			</g>
		</g>
		<g>
			<path fill="#6D1E83" d="M418.001,167.876h-3.745l0.131-3.746h3.745L418.001,167.876z M415.18,166.984h1.961l0.067-1.96h-1.96
				L415.18,166.984z"/>
		</g>
		<g>
			<polygon fill="#95066A" points="424.17,241.99 280.139,241.99 280.309,237.136 424.34,237.136 			"/>
		</g>
		<g>
			<polygon fill="#401671" points="287.109,237.136 280.309,237.136 282.623,170.858 289.424,170.858 			"/>
		</g>
		<g>
			<g>
				<polygon fill="#6D1E83" points="287.65,176.819 283.98,176.819 284.107,173.149 287.777,173.149 				"/>
			</g>
			<g>
				<polygon fill="#6D1E83" points="287.418,183.464 283.748,183.464 283.877,179.794 287.546,179.794 				"/>
			</g>
			<g>
				<polygon fill="#6D1E83" points="287.188,190.109 283.518,190.109 283.645,186.439 287.314,186.439 				"/>
			</g>
			<g>
				<polygon fill="#6D1E83" points="286.954,196.754 283.284,196.754 283.412,193.084 287.082,193.084 				"/>
			</g>
			<g>
				<polygon fill="#6D1E83" points="286.723,203.399 283.053,203.399 283.182,199.729 286.852,199.729 				"/>
			</g>
			<g>
				<polygon fill="#6D1E83" points="286.49,210.045 282.82,210.045 282.948,206.375 286.618,206.375 				"/>
			</g>
		</g>
		<g>
			<polygon fill="#6D1E83" points="426.401,178.108 411.063,178.108 411.107,176.769 426.448,176.769 			"/>
		</g>
		<g>
			<polygon fill="#6D1E83" points="426.146,185.357 410.809,185.357 410.855,184.019 426.194,184.019 			"/>
		</g>
		<g>
			<polygon fill="#6D1E83" points="425.895,192.607 410.557,192.607 410.604,191.268 425.941,191.268 			"/>
		</g>
		<g>
			<polygon fill="#6D1E83" points="425.642,199.857 410.303,199.857 410.35,198.518 425.688,198.518 			"/>
		</g>
		<g>
			<polygon fill="#FFFFFF" points="367.949,230.616 314.712,230.616 316.57,177.378 369.809,177.378 			"/>
		</g>
		<g>
			<polygon fill="#4929CF" points="328.781,191.301 326.182,191.301 326.271,188.701 328.872,188.701 			"/>
		</g>
		<g>
			<polygon fill="#4929CF" points="357.994,191.301 355.395,191.301 355.484,188.701 358.085,188.701 			"/>
		</g>
		<g>
			<polygon fill="#4929CF" points="357.114,216.495 354.516,216.495 354.605,213.895 357.205,213.895 			"/>
		</g>
		<g>
			<polygon fill="#4929CF" points="327.902,216.495 325.302,216.495 325.393,213.895 327.992,213.895 			"/>
		</g>
		<g>
			<path fill="#4929CF" d="M356.127,215.471h-29.766l0.898-25.746h29.766L356.127,215.471z M326.934,214.918h28.66l0.86-24.642
				h-28.66L326.934,214.918z"/>
		</g>
	</g>
</g>
<g>
	<g>
		<rect x="266.209" y="277.134" fill="#401671" width="61.463" height="2.799"/>
	</g>
	<g>
		<g>
			<path fill="#5D41D4" d="M297.434,277.145L297.434,277.145c-0.67,0.139-1.326-0.295-1.463-0.965l-0.646-3.157
				c-0.138-0.67,0.296-1.325,0.966-1.462l0,0c0.671-0.138,1.325,0.295,1.463,0.966l0.646,3.156
				C298.536,276.354,298.104,277.008,297.434,277.145z"/>
		</g>
		<g>
			<path fill="#401671" d="M298.001,273.74l-2.428,0.497l-4.546-22.217c-0.137-0.671,0.296-1.326,0.967-1.463l0,0
				c0.67-0.137,1.324,0.295,1.462,0.966L298.001,273.74z"/>
		</g>
	</g>
</g>
<g>
	<g>
		<rect x="59.111" y="280.022" fill="#E6E0FF" width="385.424" height="12.979"/>
	</g>
</g>
<g>
	<g>
		<path fill="#FE8770" d="M249.205,279.932h-21.928c-3.698,0-6.695-2.998-6.695-6.695c0-3.696,2.998-6.694,6.695-6.694h21.928
			c3.697,0,6.695,2.998,6.695,6.694C255.9,276.934,252.902,279.932,249.205,279.932z"/>
	</g>
	<g>
		<g>
			<path fill="#FE9B88" d="M239.729,176.372h-2.593v-11.979h3.414l2.538,6.978c0.816,2.242-0.636,4.771-3.013,4.985
				C239.961,176.366,239.846,176.372,239.729,176.372z"/>
		</g>
		<g>
			<path fill="#FE9B88" d="M230.04,196.849c-0.001,0-12.815,0-12.815,0v-44.377c0,0,23.034,0,23.323,0
				c0.398,0-0.569,29.575-0.91,32.291C238.959,190.189,236.581,196.849,230.04,196.849z"/>
		</g>
		<g opacity="0.15">
			<path fill="#FFFFFF" d="M237.137,152.472v40.206c1.43-2.319,2.17-5.263,2.501-7.915c0.34-2.716,1.308-32.291,0.91-32.291
				C240.479,152.472,239.141,152.472,237.137,152.472z"/>
		</g>
		<g>
			<polygon fill="#FE9B88" points="218.159,214.444 208.611,214.444 208.611,174.991 228.888,174.991 228.888,199.438 			"/>
		</g>
		<g>
			<path fill="#FE9B88" d="M216.206,197.091L216.206,197.091c-10.127,0-18.337-8.21-18.337-18.338v-2.381h18.337V197.091z"/>
		</g>
		<g>
			<path fill="#2D2E33" d="M216.445,190.9h-15.667c-4.938,0-8.941-4.003-8.941-8.94v-28.407c0-4.938,4.003-8.94,8.941-8.94h15.667
				c4.938,0,8.941,4.003,8.941,8.94v28.407C225.386,186.897,221.383,190.9,216.445,190.9z"/>
		</g>
		<g>
			<path fill="#2D2E33" d="M241.811,128.506c-3.52,0-6.617,1.797-8.431,4.521h-23.564c-5.269,0-9.539,4.271-9.539,9.539v14.614
				c0,0,39.58,0,39.581,0c5.362,0,10.207-3.679,11.637-8.85c0.522-1.891,0.666-3.895,0.601-5.846
				c-0.068-2.063-0.013-4.123-0.494-6.149C250.523,131.805,246.514,128.506,241.811,128.506z"/>
		</g>
		<g>
			<path fill="#FE9B88" d="M224.839,176.372L224.839,176.372c-2.236,0-4.049-1.813-4.049-4.05v-4.279
				c0-2.236,1.813-4.048,4.049-4.048l0,0c2.236,0,4.049,1.813,4.049,4.048v4.279C228.888,174.559,227.075,176.372,224.839,176.372z"
				/>
		</g>
		<g>
			<path fill="#2D2E33" d="M223.83,171.289h-3.391V150.83h12.741v11.107C233.18,167.103,228.994,171.289,223.83,171.289z"/>
		</g>
		<g>
			<path fill="#310F57" d="M241.056,161.771h-1.079c-0.393,0-0.711-0.317-0.711-0.711l0,0c0-0.393,0.318-0.711,0.711-0.711h1.079
				c0.393,0,0.711,0.318,0.711,0.711l0,0C241.767,161.452,241.449,161.771,241.056,161.771z"/>
		</g>
		<g>
			<g>
				<path fill="#2D2E33" d="M227.091,161.938c0,4.226-2.804,7.792-6.651,8.951v0.4h3.391c5.164,0,9.35-4.188,9.35-9.352v-4.757
					c-0.997,0-3.202,0-6.089,0L227.091,161.938L227.091,161.938z"/>
			</g>
			<g opacity="0.15">
				<path fill="#FFFFFF" d="M252.096,142.487c-0.068-2.063-0.014-4.123-0.494-6.15c-1.078-4.532-5.087-7.831-9.791-7.831
					c-1.072,0-2.104,0.169-3.074,0.478c3.327,1.063,5.937,3.832,6.774,7.354c0.482,2.027,0.426,4.087,0.495,6.15
					c0.064,1.951-0.078,3.955-0.601,5.846c-1.431,5.17-6.275,8.85-11.637,8.85c3.655,0,6.09,0,6.09,0
					c5.362,0,10.207-3.679,11.637-8.85C252.018,146.442,252.16,144.438,252.096,142.487z"/>
			</g>
		</g>
	</g>
	<g>
		<g>
			<path fill="#FE9B88" d="M258.741,282.604c-14.181,0-25.574-14.286-31.371-27.614c-4.492-10.328-8.009-19.979-12.081-31.154
				l-0.529-1.452c-1.265-3.47,0.523-7.309,3.993-8.573c3.47-1.266,7.309,0.523,8.573,3.993l0.53,1.454
				c3.997,10.97,7.449,20.444,11.779,30.398c3.832,8.811,12.553,21.23,20.932,19.365c7.709-1.728,25.166-7.888,25.341-7.949
				l0.752-0.218c5.478-1.24,12.444-1.075,13.222-1.05c3.691,0.11,6.596,3.192,6.485,6.884c-0.111,3.692-3.229,6.574-6.884,6.485
				c-1.592-0.042-6.287-0.009-9.521,0.649c-2.8,0.983-18.585,6.481-26.471,8.248C261.877,282.433,260.292,282.604,258.741,282.604z"
				/>
		</g>
		<g>
			<path fill="#85C7BE" d="M224.75,255.429c-0.082-0.237-8.275-23.909-12.417-35.292l17.423-6.339
				c4.192,11.521,12.433,35.33,12.516,35.569L224.75,255.429z"/>
		</g>
		<g>
			<path fill="#85C7BE" d="M222.874,308.234l-66.972-1.479l3.301-87.815c0.869-10.854,14.29-21.452,25.13-20.584l28.49,2.281
				c10.84,0.868,18.924,10.371,18.055,21.225L222.874,308.234z"/>
		</g>
	</g>
</g>
<g>
	<path fill="#FE9B88" d="M285.461,400.782l-8.266-0.047l-1.168-23.063l12.127,0.067l0.654,19.73
		C288.799,399.312,287.3,400.793,285.461,400.782z"/>
</g>
<g>
	<path fill="#F44940" d="M292.85,397.257l-18.611-0.3l0.068-4.327c0.024-1.5,1.729-2.688,3.811-2.655l11.078,0.178
		c2.082,0.033,3.748,1.276,3.724,2.774L292.85,397.257z"/>
</g>
<g>
	<path fill="#F44940" d="M302.395,395.875L302.395,395.875l-23.668-0.134c-2.467-0.015-4.477,1.975-4.49,4.44l-0.063,11.19
		l28.132,0.158l10.719,0.063l0.027-4.94C313.084,400.733,308.313,395.907,302.395,395.875z"/>
</g>
<g>
	<path fill="#F44940" d="M290.094,397.163l-0.019-0.032l-0.63-0.003l0,0l-15.201-0.086l-0.071,12.761l15.201,0.086l7.726,0.043
		l1.01,0.006l0.022-4.026C298.157,401.306,294.611,397.521,290.094,397.163z"/>
</g>
<g>
	<path fill="#24082D" d="M271.873,385.303l-2.145-53.637c-1.394-7.496-8.082-12.754-15.74-12.331l-0.362,0.021l-0.363-0.005
		c-13.329-0.171-35.134-0.431-36.885-0.407l-0.573-20.81c1.661-0.063,26.429,0.256,37.39,0.396
		c18.41-0.875,34.406,12.189,37.199,30.495l0.088,0.574l0.021,0.581l2.169,54.291L271.873,385.303z"/>
</g>
<g>
	<path fill="#FE9B88" d="M313.369,357.781l-8.172,1.232l-5.772-22.44l11.991-1.807l4.749,19.228
		C316.439,355.812,315.188,357.508,313.369,357.781z"/>
</g>
<g>
	<path fill="#F44940" d="M321.664,354.258l-20.068,2.812l-0.291-2.085c-0.387-2.75,2.596-5.44,6.659-6.011l5.354-0.749
		c4.063-0.57,7.668,1.198,8.055,3.948L321.664,354.258z"/>
</g>
<g>
	<path fill="#F44940" d="M329.593,351.576L329.593,351.576l-23.698,3.572c-2.469,0.373-4.168,2.676-3.795,5.146l1.688,11.208
		l28.17-4.245l10.73-1.618l-0.744-4.946C341.048,354.765,335.521,350.685,329.593,351.576z"/>
</g>
<g>
	<path fill="#F44940" d="M320.902,352.929l-0.028-0.037l-0.772,0.116l0,0l-18.678,2.814l2.362,15.68l18.679-2.814l9.491-1.431
		l1.239-0.188l-0.746-4.946C331.598,356.465,326.52,352.5,320.902,352.929z"/>
</g>
<g>
	<path fill="#24082D" d="M297.113,346.312c-0.075-0.407-8.413-42.283-30.112-42.283c-9.735,0-46.345,9.054-67.133,14.759
		l-5.511-20.075c5.781-1.586,56.928-15.501,72.644-15.501c39.368,0,50.156,56.96,50.597,59.385L297.113,346.312z"/>
</g>
<g>
	<g>
		<path fill="#24082D" d="M269.814,330.882c-1.185-7.763-7.996-13.286-15.826-12.831l-1.133-11.777
			c33.859-10.037,34.727,3.033,37.539,21.469L269.814,330.882z"/>
	</g>
</g>
<g>
	<path fill="#310F57" d="M207.888,322.256h-29.555c-9.733,0-17.625-7.892-17.625-17.625v-30.862h66.568v29.098
		C227.277,313.574,218.596,322.256,207.888,322.256z"/>
</g>
<g>
	<g>
		<g>
			<g>
				<path fill="#ACA7C4" d="M198.756,399.782c-1.733,0-3.138-1.404-3.138-3.138v-39.066c0-1.731,1.405-3.138,3.138-3.138
					c1.733,0,3.138,1.405,3.138,3.138v39.066C201.894,398.378,200.489,399.782,198.756,399.782z"/>
			</g>
			<g>
				<path fill="#2D2E33" d="M204.802,409.981H192.71c-2.015,0-3.649-1.634-3.649-3.649v-7.344c0-2.016,1.634-3.648,3.649-3.648
					h12.092c2.016,0,3.649,1.634,3.649,3.648v7.344C208.451,408.348,206.817,409.981,204.802,409.981z"/>
			</g>
		</g>
		<g>
			<g>
				<path fill="#ACA7C4" d="M236.691,399.782c-1.733,0-3.138-1.404-3.138-3.138v-3.913l-34.791,0.082c-0.002,0-0.005,0-0.007,0
					c-1.729,0-3.133-1.399-3.138-3.13c-0.004-1.733,1.397-3.143,3.13-3.146l37.936-0.09c0.002,0,0.005,0,0.007,0
					c0.831,0,1.628,0.329,2.216,0.916c0.59,0.589,0.922,1.39,0.922,2.223v7.059C239.829,398.378,238.424,399.782,236.691,399.782z"
					/>
			</g>
			<g>
				<path fill="#2D2E33" d="M242.737,409.981h-12.092c-2.015,0-3.649-1.634-3.649-3.649v-7.344c0-2.016,1.634-3.648,3.649-3.648
					h12.092c2.016,0,3.649,1.634,3.649,3.648v7.344C246.387,408.348,244.753,409.981,242.737,409.981z"/>
			</g>
			<g>
				<path fill="#131416" d="M230.481,395.347c-1.939,0.087-3.485,1.682-3.485,3.642v7.344c0,1.961,1.546,3.556,3.485,3.642
					c1.939-0.086,3.485-1.681,3.485-3.642v-7.344C233.967,397.028,232.42,395.434,230.481,395.347z"/>
			</g>
		</g>
		<g>
			<g>
				<path fill="#ACA7C4" d="M160.892,399.782c-1.733,0-3.138-1.404-3.138-3.138v-7.059c0-0.833,0.332-1.634,0.922-2.223
					c0.589-0.589,1.35-0.927,2.223-0.916l37.936,0.09c1.733,0.005,3.134,1.412,3.13,3.146c-0.004,1.729-1.408,3.13-3.138,3.13
					c-0.002,0-0.005,0-0.007,0l-34.791-0.082v3.913C164.03,398.378,162.625,399.782,160.892,399.782z"/>
			</g>
			<g>
				<path fill="#2D2E33" d="M154.846,409.981h12.092c2.016,0,3.649-1.634,3.649-3.649v-7.344c0-2.016-1.634-3.648-3.649-3.648
					h-12.092c-2.016,0-3.649,0.567-3.649,2.584v7.343C151.197,407.281,152.831,409.981,154.846,409.981z"/>
			</g>
			<g>
				<path fill="#131416" d="M167.102,395.347c1.939,0.087,3.485,1.682,3.485,3.642v7.344c0,1.961-1.546,3.556-3.485,3.642
					c-1.939-0.086-3.485-1.681-3.485-3.642v-7.344C163.617,397.028,165.163,395.434,167.102,395.347z"/>
			</g>
		</g>
	</g>
	<g>
		<path fill="#100F11" d="M198.756,370.47c-2.599,0-4.707-2.106-4.707-4.706v-38c0-2.601,2.107-4.706,4.707-4.706
			c2.6,0,4.707,2.105,4.707,4.706v38C203.462,368.363,201.355,370.47,198.756,370.47z"/>
	</g>
	<g>
		<rect x="191.696" y="346.764" fill="#2D2E33" width="14.119" height="30.767"/>
	</g>
	<g>
		<path fill="#100F11" d="M235.022,340.662h-84.876c-2.633,0-4.768-2.134-4.768-4.768v-4.906h94.551v4.769
			C239.929,338.467,237.732,340.662,235.022,340.662z"/>
	</g>
	<g>
		<rect x="145.378" y="318.613" fill="#2D2E33" width="94.551" height="15.688"/>
	</g>
	<g>
		<path fill="#C9C4E5" d="M255.098,329.931l-15.168,4.37v-15.688h14.028c2.275,0,4.121,1.845,4.121,4.12v3.237
			C258.078,327.807,256.861,329.422,255.098,329.931z"/>
	</g>
	<g>
		<polygon fill="#100F11" points="230.412,308.99 156.682,308.99 153.153,207.944 226.883,207.944 		"/>
	</g>
	<g>
		<polygon fill="#19191C" points="218.384,308.99 144.654,308.99 141.125,207.944 214.856,207.944 		"/>
	</g>
	<g>
		<path fill="#2D2E33" d="M210.552,303.614h-57.958c-1.444,0-2.656-1.171-2.706-2.613l-2.971-85.064
			c-0.05-1.443,1.08-2.615,2.523-2.615h57.958c1.444,0,2.656,1.171,2.706,2.615L213.075,301
			C213.125,302.443,211.996,303.614,210.552,303.614z"/>
	</g>
	<g>
		<polygon fill="#100F11" points="210.33,202.299 161.002,202.299 159.926,171.475 209.253,171.475 		"/>
	</g>
	<g>
		<polygon fill="#2D2E33" points="202.283,202.299 152.956,202.299 151.879,171.475 201.207,171.475 		"/>
	</g>
	<g>
		<path fill="#2D2E33" d="M183.908,222.495h-10.337c-1.444,0-2.655-1.17-2.706-2.615l-1.092-31.25
			c-0.05-1.444,1.08-2.615,2.523-2.615h10.337c1.444,0,2.656,1.17,2.706,2.615l1.091,31.25
			C186.482,221.325,185.353,222.495,183.908,222.495z"/>
	</g>
	<g>
		<path fill="#2D2E33" d="M187.964,344.694h-10.337c-1.444,0-2.615-1.171-2.615-2.614v-48.715c0-1.443,1.17-2.613,2.615-2.613
			h10.337c1.444,0,2.615,1.17,2.615,2.613v48.715C190.579,343.523,189.408,344.694,187.964,344.694z"/>
	</g>
	<g>
		<path fill="#2D2E33" d="M187.818,193.336h-19.57c-1.444,0-2.656-1.17-2.706-2.615l-0.268-7.669
			c-0.05-1.444,1.08-2.615,2.523-2.615h19.57c1.444,0,2.656,1.17,2.706,2.615l0.268,7.669
			C190.392,192.166,189.262,193.336,187.818,193.336z"/>
	</g>
	<g opacity="0.19">
		<polygon points="185.686,198.512 170.119,198.512 169.938,193.336 185.505,193.336 		"/>
	</g>
</g>
<rect x="439" y="285" fill="#E6E0FF" width="6" height="123"/>
<rect x="59" y="285" fill="#E6E0FF" width="6" height="123"/>
<rect x="332" y="190" fill="#85C7BE" width="4" height="25"/>
<rect x="345" y="190" fill="#85C7BE" width="4" height="25"/>
<rect x="333" y="199" fill="#85C7BE" width="7" height="4"/>
<rect x="274" y="411" fill="#FFFFFF" width="39" height="4"/>
<rect x="303.996" y="367.995" transform="matrix(-0.9879 0.155 -0.155 -0.9879 700.4318 685.3741)" fill="#FFFFFF" width="38.999" height="4"/>
<g id="DESIGNED_BY_FREEPIK">
</g>
</svg>
